<svg xmlns="http://www.w3.org/2000/svg" version="1.1" xmlns:xlink="http://www.w3.org/1999/xlink" xmlns:svgjs="http://svgjs.dev/svgjs" width="1500" height="2094" viewBox="0 0 1500 2094"><g transform="matrix(1,0,0,1,0.8562785933764872,-2.9627872340420254)"><svg viewBox="0 0 101 141" data-background-color="#ffffff" preserveAspectRatio="xMidYMid meet" height="2094" width="1500" xmlns="http://www.w3.org/2000/svg" xmlns:xlink="http://www.w3.org/1999/xlink"><g id="tight-bounds" transform="matrix(1,0,0,1,-0.057656091954015665,0.19949999999997203)"><svg viewBox="0 0 101.11531218390806 140.60052000000002" height="140.60052000000002" width="101.11531218390806"><g><svg viewBox="0 0 101.11531218390806 140.60052000000002" height="140.60052000000002" width="101.11531218390806"><g><svg viewBox="0 0 101.11531218390806 140.60052000000002" height="140.60052000000002" width="101.11531218390806"><g><path d="M0 140.601v-140.601h101.115v140.601z" fill="#c10000" stroke="transparent" stroke-width="0" rx="0%" data-fill-palette-color="tertiary"></path><path d="M3.283 137.317v-134.034h94.549v134.034z" fill="#ffffff" stroke="transparent" stroke-width="0" rx="0%" data-fill-palette-color="quaternary"></path><path d="M9.85 130.751v-120.901h81.415v120.901z" fill="#c10000" stroke="transparent" stroke-width="0" data-fill-palette-color="tertiary"></path></g><g transform="matrix(1,0,0,1,19.699740000000002,19.69974)" id="textblocktransform"><svg viewBox="0 0 61.715832183908056 101.20104000000002" height="101.20104000000002" width="61.715832183908056" id="textblock"><g><svg viewBox="0 0 61.715832183908056 101.20104000000002" height="101.20104000000002" width="61.715832183908056"><g transform="matrix(1,0,0,1,0,0)"><svg width="61.715832183908056" viewBox="2 -34.8 21.22222086328 34.8" height="101.20104000000002" data-palette-color="#ffffff"><path d="M7.85 0L2.2 0Q2 0 2-0.25L2-0.25 2.1-34.55Q2.1-34.8 2.3-34.8L2.3-34.8 7.9-34.8Q8.1-34.8 8.1-34.55L8.1-34.55 8.1-22.7 15.95-34.6Q16.1-34.8 16.3-34.8L16.3-34.8 22.05-34.8Q22.25-34.8 22.15-34.6L22.15-34.6 13.5-20.8 23.2-0.2Q23.3 0 22.95 0L22.95 0 16.85 0Q16.6 0 16.55-0.2L16.55-0.2 9.8-14.9 8.05-12.15 8.05-0.25Q8.05 0 7.85 0L7.85 0Z" opacity="1" transform="matrix(1,0,0,1,0,0)" fill="#ffffff" class="wordmark-text-0" data-fill-palette-color="quaternary" id="text-0"></path></svg></g></svg></g></svg></g></svg></g><g></g></svg></g><defs></defs></svg><rect width="101.11531218390806" height="140.60052000000002" fill="none" stroke="none" visibility="hidden"></rect></g></svg></g></svg>